<?xml version="1.0" encoding="UTF-8" standalone="no"?>
<svg width="1205.97mm" height="660.4mm"
 viewBox="0 0 4558 2496"
 xmlns="http://www.w3.org/2000/svg" xmlns:xlink="http://www.w3.org/1999/xlink"  version="1.2" baseProfile="tiny">
<title>Pattern</title>
<defs>
</defs>
<g fill="none" stroke="black" stroke-width="1" fill-rule="evenodd" stroke-linecap="square" stroke-linejoin="bevel" >

<g fill="none" stroke="#000000" stroke-opacity="1" stroke-width="1.51181" stroke-linecap="round" stroke-linejoin="round" transform="matrix(1,0,0,1,0,0)"
font-family="Arial" font-size="10.6667" font-weight="400" font-style="normal" 
>
</g>

<g fill="none" stroke="#000000" stroke-opacity="1" stroke-width="1.51181" stroke-linecap="round" stroke-linejoin="round" transform="matrix(1,0,0,1,0,0)"
font-family="Arial" font-size="10.6667" font-weight="400" font-style="normal" 
>
</g>

<g fill="none" stroke="#000000" stroke-opacity="1" stroke-width="1.51181" stroke-linecap="round" stroke-linejoin="round" transform="matrix(1,0,0,1,796.125,2445)"
font-family="Arial" font-size="10.6667" font-weight="400" font-style="normal" 
>
</g>

<g fill="none" stroke="#000000" stroke-opacity="1" stroke-width="1" stroke-linecap="square" stroke-linejoin="bevel" transform="matrix(1,0,0,1,796.125,2445)"
font-family="Arial" font-size="10.6667" font-weight="400" font-style="normal" 
>
<path vector-effect="none" fill-rule="evenodd" d="M3196.47,39.9999 L3196.47,-1598.25 L3423.25,-1598.25 L3423.25,39.9999 L3196.47,39.9999"/>
</g>

<g fill="none" stroke="#000000" stroke-opacity="1" stroke-width="1.51181" stroke-linecap="round" stroke-linejoin="round" transform="matrix(1,0,0,1,796.125,2445)"
font-family="Arial" font-size="10.6667" font-weight="400" font-style="normal" 
>
</g>

<g fill="none" stroke="#000000" stroke-opacity="1" stroke-width="1.51181" stroke-linecap="round" stroke-linejoin="round" transform="matrix(1,0,0,1,-30,2445)"
font-family="Arial" font-size="10.6667" font-weight="400" font-style="normal" 
>
</g>

<g fill="none" stroke="#000000" stroke-opacity="1" stroke-width="1" stroke-linecap="square" stroke-linejoin="bevel" transform="matrix(1,0,0,1,-30,2445)"
font-family="Arial" font-size="10.6667" font-weight="400" font-style="normal" 
>
<path vector-effect="none" fill-rule="evenodd" d="M1339.22,39.9999 L1339.22,-1547.4 L1334.98,-1557.16 L1327.11,-1577.05 L1319.95,-1597.35 L1313.5,-1618.03 L1305.05,-1649.64 L1296.36,-1692.85 L1290.44,-1736.97 L1287.26,-1781.73 L1286.8,-1826.87 L1289.02,-1872.12 L1293.89,-1917.22 L1301.4,-1961.9 L1311.5,-2005.9 L1324.17,-2048.95 L1339.39,-2090.78 L1357.12,-2131.14 L1372.12,-2160.21 L1382.84,-2179.03 L1394.18,-2197.33 L1406.12,-2215.08 L1412.34,-2223.71 L2130.21,-2223.71 L2130.29,-2216.7 L2131.18,-2203.4 L2132.92,-2190.96 L2135.5,-2179.34 L2138.88,-2168.51 L2143.03,-2158.45 L2147.92,-2149.13 L2153.53,-2140.52 L2159.82,-2132.59 L2166.78,-2125.31 L2174.36,-2118.66 L2182.54,-2112.61 L2195.82,-2104.52 L2215.44,-2095.66 L2236.96,-2088.69 L2260.13,-2083.37 L2284.73,-2079.49 L2310.52,-2076.82 L2350.88,-2074.5 L2406.91,-2073.72 L2435.28,-2073.73 L2435.28,39.9999 L1339.22,39.9999"/>
</g>

<g fill="none" stroke="#000000" stroke-opacity="1" stroke-width="1.51181" stroke-linecap="round" stroke-linejoin="round" transform="matrix(1,0,0,1,-30,2445)"
font-family="Arial" font-size="10.6667" font-weight="400" font-style="normal" 
>
</g>

<g fill="none" stroke="#000000" stroke-opacity="1" stroke-width="1.51181" stroke-linecap="round" stroke-linejoin="round" transform="matrix(1,0,0,1,-30,2445)"
font-family="Arial" font-size="10.6667" font-weight="400" font-style="normal" 
>
</g>

<g fill="none" stroke="#000000" stroke-opacity="1" stroke-width="1" stroke-linecap="square" stroke-linejoin="bevel" transform="matrix(1,0,0,1,-30,2445)"
font-family="Arial" font-size="10.6667" font-weight="400" font-style="normal" 
>
<path vector-effect="none" fill-rule="evenodd" d="M30,39.9999 L30,-1547.4 L36.2236,-1556.03 L48.1662,-1573.78 L59.5004,-1592.08 L70.2225,-1610.9 L85.2276,-1639.97 L102.956,-1680.33 L118.171,-1722.16 L130.845,-1765.21 L140.948,-1809.21 L148.453,-1853.89 L153.329,-1898.99 L155.55,-1944.24 L155.085,-1989.38 L151.906,-2034.14 L145.985,-2078.26 L137.292,-2121.47 L128.849,-2153.08 L122.397,-2173.76 L115.237,-2194.06 L107.364,-2213.95 L103.129,-2223.71 L820.999,-2223.71 L821.217,-2210.56 L823.796,-2184.58 L828.884,-2159.13 L836.407,-2134.39 L846.294,-2110.52 L858.472,-2087.7 L872.871,-2066.11 L889.418,-2045.91 L898.559,-2036.46 L908.009,-2027.32 L928.204,-2010.77 L949.797,-1996.38 L972.615,-1984.2 L996.484,-1974.31 L1021.23,-1966.79 L1046.68,-1961.7 L1072.66,-1959.12 L1085.81,-1958.9 L1093.68,-1958.98 L1101.54,-1959.37 L1126.06,-1547.4 L1220.55,39.9999 L30,39.9999"/>
</g>

<g fill="none" stroke="#000000" stroke-opacity="1" stroke-width="1.51181" stroke-linecap="round" stroke-linejoin="round" transform="matrix(1,0,0,1,-30,2445)"
font-family="Arial" font-size="10.6667" font-weight="400" font-style="normal" 
>
</g>

<g fill="none" stroke="#000000" stroke-opacity="1" stroke-width="1.51181" stroke-linecap="round" stroke-linejoin="round" transform="matrix(1,0,0,1,3162.22,134.439)"
font-family="Arial" font-size="10.6667" font-weight="400" font-style="normal" 
>
</g>

<g fill="none" stroke="#000000" stroke-opacity="1" stroke-width="1" stroke-linecap="square" stroke-linejoin="bevel" transform="matrix(1,0,0,1,3162.22,134.439)"
font-family="Arial" font-size="10.6667" font-weight="400" font-style="normal" 
>
<path vector-effect="none" fill-rule="evenodd" d="M30,2361.03 L-636.302,2118.51 L-636.302,-133.463 L30,-133.463 L696.302,-133.463 L696.302,2118.51 L30,2361.03"/>
</g>

<g fill="none" stroke="#000000" stroke-opacity="1" stroke-width="1.51181" stroke-linecap="round" stroke-linejoin="round" transform="matrix(1,0,0,1,3162.22,134.439)"
font-family="Arial" font-size="10.6667" font-weight="400" font-style="normal" 
>
</g>

<g fill="none" stroke="#000000" stroke-opacity="1" stroke-width="1.51181" stroke-linecap="round" stroke-linejoin="round" transform="matrix(1,0,0,1,162.762,2445)"
font-family="Arial" font-size="10.6667" font-weight="400" font-style="normal" 
>
</g>

<g fill="none" stroke="#000000" stroke-opacity="1" stroke-width="1" stroke-linecap="square" stroke-linejoin="bevel" transform="matrix(1,0,0,1,162.762,2445)"
font-family="Arial" font-size="10.6667" font-weight="400" font-style="normal" 
>
<path vector-effect="none" fill-rule="evenodd" d="M4168.33,39.9999 L4168.33,-791.496 L4395.1,-791.496 L4395.1,39.9999 L4168.33,39.9999"/>
</g>

<g fill="none" stroke="#000000" stroke-opacity="1" stroke-width="1.51181" stroke-linecap="round" stroke-linejoin="round" transform="matrix(1,0,0,1,162.762,2445)"
font-family="Arial" font-size="10.6667" font-weight="400" font-style="normal" 
>
</g>

<g fill="none" stroke="#000000" stroke-opacity="1" stroke-width="1.51181" stroke-linecap="round" stroke-linejoin="round" transform="matrix(1,0,0,1,0,0)"
font-family="Arial" font-size="10.6667" font-weight="400" font-style="normal" 
>
</g>
</g>
</svg>
